<svg fill="none" xmlns="http://www.w3.org/2000/svg" width="128" height="28"><path fill-rule="evenodd" clip-rule="evenodd" d="M34.33 6.02H28.7v16.55h6.06c3.54 0 5.8-1.8 5.8-4.77a4.03 4.03 0 0 0-2.97-4.05 3.5 3.5 0 0 0 1.98-3.3c0-2.77-2.17-4.43-5.24-4.43zm2.45 4.61c0 1.42-1.1 2.22-2.64 2.22H31.5V8.43h2.64c1.55 0 2.64.78 2.64 2.2zm.9 7.02c0 1.61-1.2 2.49-3.04 2.49H31.5V15.2h3.12c1.83 0 3.07.92 3.07 2.45zm16.79-6.66v11.58h-2.71v-1.69a4.81 4.81 0 0 1-3.95 1.97c-3.2 0-5.68-2.65-5.68-6.08s2.47-6.07 5.68-6.07c1.62 0 3.1.66 3.95 1.88v-1.6h2.71zm-6.09 9.38a3.5 3.5 0 0 0 3.5-3.6 3.5 3.5 0 0 0-3.5-3.6c-1.97 0-3.5 1.6-3.5 3.61a3.5 3.5 0 0 0 3.5 3.6v-.01z" fill="#000"/><path d="M57.2 22.57h2.76v-6.1c0-1.98 1.07-3.24 2.74-3.24 1.66 0 2.59 1.09 2.59 2.89v6.45h2.76V15.6c0-3-1.7-4.9-4.52-4.9a4.1 4.1 0 0 0-3.57 1.82V11H57.2v11.58z" fill="#000"/><path fill-rule="evenodd" clip-rule="evenodd" d="M79.72 22.57v-1.65a4.86 4.86 0 0 1-3.95 1.94c-3.2 0-5.68-2.63-5.68-6.08 0-3.4 2.47-6.08 5.68-6.08 1.62 0 3.1.69 3.95 1.88V6.02h2.73v16.55h-2.73zm-3.38-2.2a3.5 3.5 0 0 0 3.5-3.6 3.5 3.5 0 0 0-3.5-3.59 3.5 3.5 0 0 0-3.5 3.6 3.5 3.5 0 0 0 3.5 3.6z" fill="#000"/><path d="M88.5 19.92V6.02h-2.86v16.55h9.15v-2.65h-6.3z" fill="#000"/><path fill-rule="evenodd" clip-rule="evenodd" d="M107.64 22.57h-2.71v-1.69a4.81 4.81 0 0 1-3.95 1.97c-3.2 0-5.68-2.65-5.68-6.08s2.47-6.07 5.68-6.07c1.62 0 3.1.66 3.95 1.88v-1.6h2.71v11.6zm-6.08-2.2a3.5 3.5 0 0 0 3.5-3.6 3.5 3.5 0 0 0-3.5-3.59 3.51 3.51 0 0 0-3.5 3.6 3.5 3.5 0 0 0 3.5 3.6zm8.81-14.35v16.55h2.74v-1.59a4.8 4.8 0 0 0 3.94 1.88c3.22 0 5.69-2.68 5.69-6.08 0-3.45-2.48-6.08-5.69-6.08a4.89 4.89 0 0 0-3.94 1.94V6.02h-2.74zM113 16.79a3.5 3.5 0 0 1 3.5-3.6 3.5 3.5 0 0 1 3.49 3.59 3.5 3.5 0 0 1-3.5 3.6 3.5 3.5 0 0 1-3.5-3.6z" fill="#000"/><path d="M10.15 19.22c-1.47 0-2.37-.87-2.37-2.09 0-1.67 1.7-3.13 3.57-3.54L6.98 2.8h7.63L16 5.5h-5.34l3.19 7.78c.27.62.42 1.28.42 1.95 0 2.3-2.3 3.99-4.13 3.99z" fill="#F12C18"/><path d="m18.03 8.48 3.33 5.74c.64 1.15 1 2.44 1.04 3.76 0 4.2-3.31 7.22-8 7.22H8c-4.7 0-8-3.03-8-7.22a8.4 8.4 0 0 1 1.03-3.76l3.33-5.74h3.12l-3.9 6.77a5.65 5.65 0 0 0-.77 2.68c0 2.67 1.83 4.57 5.28 4.57h6.21c3.45 0 5.28-1.9 5.28-4.57a5.65 5.65 0 0 0-.77-2.68l-3.9-6.77h3.12z" fill="#F12C18"/></svg>